<mxfile host="app.diagrams.net" agent="Mozilla/5.0 (Windows NT 10.0; Win64; x64) AppleWebKit/537.36 (KHTML, like Gecko) Chrome/130.0.0.0 YaBrowser/24.12.0.0 Safari/537.36" version="25.0.3">
  <diagram name="Страница — 1" id="KqPC2h2__ZS7h5uAzGFT">
    <mxGraphModel dx="1300" dy="724" grid="1" gridSize="10" guides="1" tooltips="1" connect="1" arrows="1" fold="1" page="1" pageScale="1" pageWidth="827" pageHeight="1169" math="0" shadow="0">
      <root>
        <mxCell id="0" />
        <mxCell id="1" parent="0" />
        <mxCell id="-Lv7uN0GjUNi9tmUq3fg-2" style="edgeStyle=orthogonalEdgeStyle;rounded=0;orthogonalLoop=1;jettySize=auto;html=1;" edge="1" parent="1" source="-Lv7uN0GjUNi9tmUq3fg-1" target="-Lv7uN0GjUNi9tmUq3fg-7">
          <mxGeometry relative="1" as="geometry">
            <mxPoint x="410" y="220" as="targetPoint" />
          </mxGeometry>
        </mxCell>
        <mxCell id="-Lv7uN0GjUNi9tmUq3fg-1" value="Начало" style="ellipse;whiteSpace=wrap;html=1;aspect=fixed;" vertex="1" parent="1">
          <mxGeometry x="370" y="40" width="80" height="80" as="geometry" />
        </mxCell>
        <mxCell id="-Lv7uN0GjUNi9tmUq3fg-4" value="" style="endArrow=none;dashed=1;html=1;rounded=0;" edge="1" parent="1">
          <mxGeometry width="50" height="50" relative="1" as="geometry">
            <mxPoint x="410" y="180" as="sourcePoint" />
            <mxPoint x="580" y="180" as="targetPoint" />
          </mxGeometry>
        </mxCell>
        <mxCell id="-Lv7uN0GjUNi9tmUq3fg-5" value="" style="endArrow=none;html=1;rounded=0;" edge="1" parent="1">
          <mxGeometry width="50" height="50" relative="1" as="geometry">
            <mxPoint x="730" y="220" as="sourcePoint" />
            <mxPoint x="740" y="140" as="targetPoint" />
            <Array as="points">
              <mxPoint x="650" y="220" />
              <mxPoint x="580" y="220" />
              <mxPoint x="580" y="140" />
              <mxPoint x="660" y="140" />
            </Array>
          </mxGeometry>
        </mxCell>
        <mxCell id="-Lv7uN0GjUNi9tmUq3fg-6" value="&lt;div&gt;#include &amp;lt;iostream&amp;gt;&lt;/div&gt;&lt;div&gt;#include &amp;lt;cmath&amp;gt;&lt;/div&gt;&lt;div&gt;#include &amp;lt;clocale&amp;gt;&lt;/div&gt;&lt;div&gt;using namespace std;&lt;/div&gt;" style="text;html=1;align=center;verticalAlign=middle;resizable=0;points=[];autosize=1;strokeColor=none;fillColor=none;" vertex="1" parent="1">
          <mxGeometry x="580" y="150" width="140" height="70" as="geometry" />
        </mxCell>
        <mxCell id="-Lv7uN0GjUNi9tmUq3fg-8" style="edgeStyle=orthogonalEdgeStyle;rounded=0;orthogonalLoop=1;jettySize=auto;html=1;" edge="1" parent="1" source="-Lv7uN0GjUNi9tmUq3fg-7" target="-Lv7uN0GjUNi9tmUq3fg-11">
          <mxGeometry relative="1" as="geometry">
            <mxPoint x="410" y="330" as="targetPoint" />
          </mxGeometry>
        </mxCell>
        <mxCell id="-Lv7uN0GjUNi9tmUq3fg-7" value="float f(float a, float b, float eps)" style="shape=process;whiteSpace=wrap;html=1;backgroundOutline=1;" vertex="1" parent="1">
          <mxGeometry x="300" y="240" width="220" height="60" as="geometry" />
        </mxCell>
        <mxCell id="-Lv7uN0GjUNi9tmUq3fg-12" style="edgeStyle=orthogonalEdgeStyle;rounded=0;orthogonalLoop=1;jettySize=auto;html=1;" edge="1" parent="1" source="-Lv7uN0GjUNi9tmUq3fg-11" target="-Lv7uN0GjUNi9tmUq3fg-14">
          <mxGeometry relative="1" as="geometry">
            <mxPoint x="410" y="410" as="targetPoint" />
          </mxGeometry>
        </mxCell>
        <mxCell id="-Lv7uN0GjUNi9tmUq3fg-11" value="float x = (b + a) / 2;" style="rounded=0;whiteSpace=wrap;html=1;" vertex="1" parent="1">
          <mxGeometry x="350" y="320" width="120" height="60" as="geometry" />
        </mxCell>
        <mxCell id="-Lv7uN0GjUNi9tmUq3fg-15" style="edgeStyle=orthogonalEdgeStyle;rounded=0;orthogonalLoop=1;jettySize=auto;html=1;" edge="1" parent="1" source="-Lv7uN0GjUNi9tmUq3fg-14" target="-Lv7uN0GjUNi9tmUq3fg-16">
          <mxGeometry relative="1" as="geometry">
            <mxPoint x="300" y="490" as="targetPoint" />
          </mxGeometry>
        </mxCell>
        <mxCell id="-Lv7uN0GjUNi9tmUq3fg-18" style="edgeStyle=orthogonalEdgeStyle;rounded=0;orthogonalLoop=1;jettySize=auto;html=1;" edge="1" parent="1" source="-Lv7uN0GjUNi9tmUq3fg-14" target="-Lv7uN0GjUNi9tmUq3fg-19">
          <mxGeometry relative="1" as="geometry">
            <mxPoint x="640" y="510" as="targetPoint" />
          </mxGeometry>
        </mxCell>
        <mxCell id="-Lv7uN0GjUNi9tmUq3fg-14" value="if (abs(b - a) / 2 &amp;lt;= eps)" style="rhombus;whiteSpace=wrap;html=1;" vertex="1" parent="1">
          <mxGeometry x="335" y="400" width="150" height="80" as="geometry" />
        </mxCell>
        <mxCell id="-Lv7uN0GjUNi9tmUq3fg-24" style="edgeStyle=orthogonalEdgeStyle;rounded=0;orthogonalLoop=1;jettySize=auto;html=1;" edge="1" parent="1" source="-Lv7uN0GjUNi9tmUq3fg-16">
          <mxGeometry relative="1" as="geometry">
            <mxPoint x="410" y="780" as="targetPoint" />
            <Array as="points">
              <mxPoint x="270" y="780" />
            </Array>
          </mxGeometry>
        </mxCell>
        <mxCell id="-Lv7uN0GjUNi9tmUq3fg-16" value="return x;" style="rounded=0;whiteSpace=wrap;html=1;" vertex="1" parent="1">
          <mxGeometry x="210" y="490" width="120" height="60" as="geometry" />
        </mxCell>
        <mxCell id="-Lv7uN0GjUNi9tmUq3fg-20" style="edgeStyle=orthogonalEdgeStyle;rounded=0;orthogonalLoop=1;jettySize=auto;html=1;" edge="1" parent="1" source="-Lv7uN0GjUNi9tmUq3fg-19" target="-Lv7uN0GjUNi9tmUq3fg-21">
          <mxGeometry relative="1" as="geometry">
            <mxPoint x="440" y="590" as="targetPoint" />
          </mxGeometry>
        </mxCell>
        <mxCell id="-Lv7uN0GjUNi9tmUq3fg-22" style="edgeStyle=orthogonalEdgeStyle;rounded=0;orthogonalLoop=1;jettySize=auto;html=1;" edge="1" parent="1" source="-Lv7uN0GjUNi9tmUq3fg-19" target="-Lv7uN0GjUNi9tmUq3fg-23">
          <mxGeometry relative="1" as="geometry">
            <mxPoint x="990" y="590" as="targetPoint" />
          </mxGeometry>
        </mxCell>
        <mxCell id="-Lv7uN0GjUNi9tmUq3fg-19" value="if ((0.1 * pow(x,2) - x * log(x)) * (0.1 * pow(a, 2) - a * log(a)) &amp;lt; 0)" style="rhombus;whiteSpace=wrap;html=1;" vertex="1" parent="1">
          <mxGeometry x="500" y="490" width="410" height="80" as="geometry" />
        </mxCell>
        <mxCell id="-Lv7uN0GjUNi9tmUq3fg-25" style="edgeStyle=orthogonalEdgeStyle;rounded=0;orthogonalLoop=1;jettySize=auto;html=1;" edge="1" parent="1" source="-Lv7uN0GjUNi9tmUq3fg-21">
          <mxGeometry relative="1" as="geometry">
            <mxPoint x="710" y="700" as="targetPoint" />
            <Array as="points">
              <mxPoint x="425" y="700" />
            </Array>
          </mxGeometry>
        </mxCell>
        <mxCell id="-Lv7uN0GjUNi9tmUq3fg-21" value="return f(a, x, eps);" style="rounded=0;whiteSpace=wrap;html=1;" vertex="1" parent="1">
          <mxGeometry x="365" y="580" width="120" height="60" as="geometry" />
        </mxCell>
        <mxCell id="-Lv7uN0GjUNi9tmUq3fg-26" style="edgeStyle=orthogonalEdgeStyle;rounded=0;orthogonalLoop=1;jettySize=auto;html=1;" edge="1" parent="1" source="-Lv7uN0GjUNi9tmUq3fg-23">
          <mxGeometry relative="1" as="geometry">
            <mxPoint x="710" y="700" as="targetPoint" />
            <Array as="points">
              <mxPoint x="980" y="700" />
              <mxPoint x="711" y="700" />
            </Array>
          </mxGeometry>
        </mxCell>
        <mxCell id="-Lv7uN0GjUNi9tmUq3fg-23" value="return f(x, b, eps);" style="rounded=0;whiteSpace=wrap;html=1;" vertex="1" parent="1">
          <mxGeometry x="920" y="580" width="120" height="60" as="geometry" />
        </mxCell>
        <mxCell id="-Lv7uN0GjUNi9tmUq3fg-28" value="" style="endArrow=classic;html=1;rounded=0;" edge="1" parent="1">
          <mxGeometry width="50" height="50" relative="1" as="geometry">
            <mxPoint x="710" y="700" as="sourcePoint" />
            <mxPoint x="410" y="780" as="targetPoint" />
            <Array as="points">
              <mxPoint x="710" y="780" />
            </Array>
          </mxGeometry>
        </mxCell>
        <mxCell id="-Lv7uN0GjUNi9tmUq3fg-29" value="" style="endArrow=classic;html=1;rounded=0;" edge="1" parent="1" target="-Lv7uN0GjUNi9tmUq3fg-31">
          <mxGeometry width="50" height="50" relative="1" as="geometry">
            <mxPoint x="410" y="780" as="sourcePoint" />
            <mxPoint x="410" y="870" as="targetPoint" />
          </mxGeometry>
        </mxCell>
        <mxCell id="-Lv7uN0GjUNi9tmUq3fg-32" style="edgeStyle=orthogonalEdgeStyle;rounded=0;orthogonalLoop=1;jettySize=auto;html=1;" edge="1" parent="1" source="-Lv7uN0GjUNi9tmUq3fg-31" target="-Lv7uN0GjUNi9tmUq3fg-33">
          <mxGeometry relative="1" as="geometry">
            <mxPoint x="410" y="920" as="targetPoint" />
          </mxGeometry>
        </mxCell>
        <mxCell id="-Lv7uN0GjUNi9tmUq3fg-31" value="int main()" style="shape=process;whiteSpace=wrap;html=1;backgroundOutline=1;" vertex="1" parent="1">
          <mxGeometry x="350" y="830" width="120" height="60" as="geometry" />
        </mxCell>
        <mxCell id="-Lv7uN0GjUNi9tmUq3fg-34" style="edgeStyle=orthogonalEdgeStyle;rounded=0;orthogonalLoop=1;jettySize=auto;html=1;" edge="1" parent="1" source="-Lv7uN0GjUNi9tmUq3fg-33" target="-Lv7uN0GjUNi9tmUq3fg-35">
          <mxGeometry relative="1" as="geometry">
            <mxPoint x="410" y="1000" as="targetPoint" />
          </mxGeometry>
        </mxCell>
        <mxCell id="-Lv7uN0GjUNi9tmUq3fg-33" value="&amp;nbsp; setlocale(LC_ALL, &quot;RU&quot;);" style="rounded=0;whiteSpace=wrap;html=1;" vertex="1" parent="1">
          <mxGeometry x="335" y="910" width="150" height="60" as="geometry" />
        </mxCell>
        <mxCell id="-Lv7uN0GjUNi9tmUq3fg-36" style="edgeStyle=orthogonalEdgeStyle;rounded=0;orthogonalLoop=1;jettySize=auto;html=1;" edge="1" parent="1" source="-Lv7uN0GjUNi9tmUq3fg-35" target="-Lv7uN0GjUNi9tmUq3fg-38">
          <mxGeometry relative="1" as="geometry">
            <mxPoint x="410" y="1090" as="targetPoint" />
          </mxGeometry>
        </mxCell>
        <mxCell id="-Lv7uN0GjUNi9tmUq3fg-35" value="float a, b, E;" style="rounded=0;whiteSpace=wrap;html=1;" vertex="1" parent="1">
          <mxGeometry x="350" y="990" width="120" height="60" as="geometry" />
        </mxCell>
        <mxCell id="-Lv7uN0GjUNi9tmUq3fg-39" style="edgeStyle=orthogonalEdgeStyle;rounded=0;orthogonalLoop=1;jettySize=auto;html=1;" edge="1" parent="1" source="-Lv7uN0GjUNi9tmUq3fg-38" target="-Lv7uN0GjUNi9tmUq3fg-40">
          <mxGeometry relative="1" as="geometry">
            <mxPoint x="410" y="1160" as="targetPoint" />
          </mxGeometry>
        </mxCell>
        <mxCell id="-Lv7uN0GjUNi9tmUq3fg-38" value="&amp;nbsp;cout &amp;lt;&amp;lt; &quot;Введите координаты концов промежутка [a;b] внутри которого необходимо найти корень уравнения 0.1x^2 - xln(x) = 0: &quot; &amp;lt;&amp;lt; endl;" style="shape=parallelogram;perimeter=parallelogramPerimeter;whiteSpace=wrap;html=1;fixedSize=1;" vertex="1" parent="1">
          <mxGeometry x="145" y="1070" width="530" height="60" as="geometry" />
        </mxCell>
        <mxCell id="-Lv7uN0GjUNi9tmUq3fg-41" style="edgeStyle=orthogonalEdgeStyle;rounded=0;orthogonalLoop=1;jettySize=auto;html=1;" edge="1" parent="1" source="-Lv7uN0GjUNi9tmUq3fg-40" target="-Lv7uN0GjUNi9tmUq3fg-42">
          <mxGeometry relative="1" as="geometry">
            <mxPoint x="410" y="1230" as="targetPoint" />
          </mxGeometry>
        </mxCell>
        <mxCell id="-Lv7uN0GjUNi9tmUq3fg-40" value="cin &amp;gt;&amp;gt; a &amp;gt;&amp;gt; b;" style="shape=parallelogram;perimeter=parallelogramPerimeter;whiteSpace=wrap;html=1;fixedSize=1;" vertex="1" parent="1">
          <mxGeometry x="350" y="1150" width="120" height="60" as="geometry" />
        </mxCell>
        <mxCell id="-Lv7uN0GjUNi9tmUq3fg-43" style="edgeStyle=orthogonalEdgeStyle;rounded=0;orthogonalLoop=1;jettySize=auto;html=1;" edge="1" parent="1" source="-Lv7uN0GjUNi9tmUq3fg-42" target="-Lv7uN0GjUNi9tmUq3fg-44">
          <mxGeometry relative="1" as="geometry">
            <mxPoint x="410" y="1310" as="targetPoint" />
          </mxGeometry>
        </mxCell>
        <mxCell id="-Lv7uN0GjUNi9tmUq3fg-42" value="E = 0.000001;" style="rounded=0;whiteSpace=wrap;html=1;" vertex="1" parent="1">
          <mxGeometry x="350" y="1230" width="120" height="60" as="geometry" />
        </mxCell>
        <mxCell id="-Lv7uN0GjUNi9tmUq3fg-45" style="edgeStyle=orthogonalEdgeStyle;rounded=0;orthogonalLoop=1;jettySize=auto;html=1;" edge="1" parent="1" source="-Lv7uN0GjUNi9tmUq3fg-44" target="-Lv7uN0GjUNi9tmUq3fg-46">
          <mxGeometry relative="1" as="geometry">
            <mxPoint x="410" y="1400" as="targetPoint" />
          </mxGeometry>
        </mxCell>
        <mxCell id="-Lv7uN0GjUNi9tmUq3fg-44" value="cout &amp;lt;&amp;lt; &quot;Приближенный корень уравнения x = &quot; &amp;lt;&amp;lt; f(a, b, E);" style="shape=parallelogram;perimeter=parallelogramPerimeter;whiteSpace=wrap;html=1;fixedSize=1;" vertex="1" parent="1">
          <mxGeometry x="225" y="1310" width="370" height="60" as="geometry" />
        </mxCell>
        <mxCell id="-Lv7uN0GjUNi9tmUq3fg-49" style="edgeStyle=orthogonalEdgeStyle;rounded=0;orthogonalLoop=1;jettySize=auto;html=1;" edge="1" parent="1" source="-Lv7uN0GjUNi9tmUq3fg-46" target="-Lv7uN0GjUNi9tmUq3fg-50">
          <mxGeometry relative="1" as="geometry">
            <mxPoint x="410" y="1470" as="targetPoint" />
          </mxGeometry>
        </mxCell>
        <mxCell id="-Lv7uN0GjUNi9tmUq3fg-46" value="&amp;nbsp;return 0;" style="rounded=0;whiteSpace=wrap;html=1;" vertex="1" parent="1">
          <mxGeometry x="350" y="1390" width="120" height="60" as="geometry" />
        </mxCell>
        <mxCell id="-Lv7uN0GjUNi9tmUq3fg-50" value="Конец" style="ellipse;whiteSpace=wrap;html=1;aspect=fixed;" vertex="1" parent="1">
          <mxGeometry x="370" y="1470" width="80" height="80" as="geometry" />
        </mxCell>
        <mxCell id="-Lv7uN0GjUNi9tmUq3fg-51" value="{" style="text;html=1;align=center;verticalAlign=middle;resizable=0;points=[];autosize=1;strokeColor=none;fillColor=none;" vertex="1" parent="1">
          <mxGeometry x="375" y="298" width="30" height="30" as="geometry" />
        </mxCell>
        <mxCell id="-Lv7uN0GjUNi9tmUq3fg-52" value="1" style="text;html=1;align=center;verticalAlign=middle;resizable=0;points=[];autosize=1;strokeColor=none;fillColor=none;" vertex="1" parent="1">
          <mxGeometry x="255" y="408" width="30" height="30" as="geometry" />
        </mxCell>
        <mxCell id="-Lv7uN0GjUNi9tmUq3fg-53" value="0" style="text;html=1;align=center;verticalAlign=middle;resizable=0;points=[];autosize=1;strokeColor=none;fillColor=none;" vertex="1" parent="1">
          <mxGeometry x="685" y="408" width="30" height="30" as="geometry" />
        </mxCell>
        <mxCell id="-Lv7uN0GjUNi9tmUq3fg-54" value="{" style="text;html=1;align=center;verticalAlign=middle;resizable=0;points=[];autosize=1;strokeColor=none;fillColor=none;" vertex="1" parent="1">
          <mxGeometry x="245" y="448" width="30" height="30" as="geometry" />
        </mxCell>
        <mxCell id="-Lv7uN0GjUNi9tmUq3fg-55" value="{" style="text;html=1;align=center;verticalAlign=middle;resizable=0;points=[];autosize=1;strokeColor=none;fillColor=none;" vertex="1" parent="1">
          <mxGeometry x="675" y="458" width="30" height="30" as="geometry" />
        </mxCell>
        <mxCell id="-Lv7uN0GjUNi9tmUq3fg-56" value="}" style="text;html=1;align=center;verticalAlign=middle;resizable=0;points=[];autosize=1;strokeColor=none;fillColor=none;" vertex="1" parent="1">
          <mxGeometry x="335" y="758" width="30" height="30" as="geometry" />
        </mxCell>
        <mxCell id="-Lv7uN0GjUNi9tmUq3fg-57" value="1" style="text;html=1;align=center;verticalAlign=middle;resizable=0;points=[];autosize=1;strokeColor=none;fillColor=none;" vertex="1" parent="1">
          <mxGeometry x="405" y="498" width="30" height="30" as="geometry" />
        </mxCell>
        <mxCell id="-Lv7uN0GjUNi9tmUq3fg-58" value="0" style="text;html=1;align=center;verticalAlign=middle;resizable=0;points=[];autosize=1;strokeColor=none;fillColor=none;" vertex="1" parent="1">
          <mxGeometry x="945" y="498" width="30" height="30" as="geometry" />
        </mxCell>
        <mxCell id="-Lv7uN0GjUNi9tmUq3fg-59" value="{" style="text;html=1;align=center;verticalAlign=middle;resizable=0;points=[];autosize=1;strokeColor=none;fillColor=none;" vertex="1" parent="1">
          <mxGeometry x="945" y="538" width="30" height="30" as="geometry" />
        </mxCell>
        <mxCell id="-Lv7uN0GjUNi9tmUq3fg-60" value="{" style="text;html=1;align=center;verticalAlign=middle;resizable=0;points=[];autosize=1;strokeColor=none;fillColor=none;" vertex="1" parent="1">
          <mxGeometry x="395" y="548" width="30" height="30" as="geometry" />
        </mxCell>
        <mxCell id="-Lv7uN0GjUNi9tmUq3fg-61" value="}" style="text;html=1;align=center;verticalAlign=middle;resizable=0;points=[];autosize=1;strokeColor=none;fillColor=none;" vertex="1" parent="1">
          <mxGeometry x="565" y="668" width="30" height="30" as="geometry" />
        </mxCell>
        <mxCell id="-Lv7uN0GjUNi9tmUq3fg-62" value="}" style="text;html=1;align=center;verticalAlign=middle;resizable=0;points=[];autosize=1;strokeColor=none;fillColor=none;" vertex="1" parent="1">
          <mxGeometry x="827" y="668" width="30" height="30" as="geometry" />
        </mxCell>
        <mxCell id="-Lv7uN0GjUNi9tmUq3fg-63" value="}" style="text;html=1;align=center;verticalAlign=middle;resizable=0;points=[];autosize=1;strokeColor=none;fillColor=none;" vertex="1" parent="1">
          <mxGeometry x="565" y="758" width="30" height="30" as="geometry" />
        </mxCell>
        <mxCell id="-Lv7uN0GjUNi9tmUq3fg-64" value="}" style="text;html=1;align=center;verticalAlign=middle;resizable=0;points=[];autosize=1;strokeColor=none;fillColor=none;" vertex="1" parent="1">
          <mxGeometry x="425" y="788" width="30" height="30" as="geometry" />
        </mxCell>
        <mxCell id="-Lv7uN0GjUNi9tmUq3fg-65" value="{" style="text;html=1;align=center;verticalAlign=middle;resizable=0;points=[];autosize=1;strokeColor=none;fillColor=none;" vertex="1" parent="1">
          <mxGeometry x="385" y="888" width="30" height="30" as="geometry" />
        </mxCell>
        <mxCell id="-Lv7uN0GjUNi9tmUq3fg-66" value="}" style="text;html=1;align=center;verticalAlign=middle;resizable=0;points=[];autosize=1;strokeColor=none;fillColor=none;" vertex="1" parent="1">
          <mxGeometry x="425" y="1448" width="30" height="30" as="geometry" />
        </mxCell>
      </root>
    </mxGraphModel>
  </diagram>
</mxfile>
